<svg xmlns="http://www.w3.org/2000/svg" version="1.1" xmlns:xlink="http://www.w3.org/1999/xlink" xmlns:svgjs="http://svgjs.dev/svgjs" width="100%" height="100%" viewBox="0 0 1000 600"><rect width="1000" height="600" x="0" y="0" fill="#ff8303"/><g><rect width="333.3333333333333" height="333.3333333333333" rx="13.333333333333334" ry="13.333333333333334" y="121.51971811021991" fill=" #f0e3ca" transform="matrix(1.2588433546169575,0,0,1.2588433546169575,0,-62.78154322491797)" x="99.2975082397461"/><path d="M197.84914749944022 214.71033691394223L210.09515559750508 214.71033691394223L210.09515559750508 352.46432134150723L222.34116369556992 352.46432134150723L222.34116369556992 361.66243409072035L197.84914749944022 361.66243409072035L197.84914749944022 214.71033691394223ZM229.9881154190282 214.71033691394223L242.23412351709302 214.71033691394223L242.23412351709302 361.66243409072035L229.9881154190282 361.66243409072035L229.9881154190282 214.71033691394223ZM289.6942082349266 228.48029268643293L289.6942082349266 266.7422646550533L277.4482001368617 266.7422646550533L277.4482001368617 228.48029268643293Q277.4482001368617 225.05141041897474 276.00589251642293 223.6907428525231Q274.5907982473133 222.3572886374005 272.84914376225515 222.3572886374005L272.84914376225515 222.3572886374005Q271.13470262852604 222.3572886374005 269.6923950080873 223.6907428525231Q268.2773007389776 225.05141041897474 268.2773007389776 228.48029268643293L268.2773007389776 228.48029268643293Q268.2773007389776 238.71251278614932 269.22976803549375 247.33914515745278Q270.1822353320099 255.93856417742722 271.7061830064357 263.204528982279Q273.23013068086163 270.4977071384599 275.16227862522294 276.4574310795181Q277.06721321825523 282.44436837190534 278.9721478112875 287.4244116651184L278.9721478112875 287.4244116651184Q280.52330883704246 291.3431342564991 282.37381672741674 296.5136710090154Q284.2515379691199 301.68420776153164 285.8571256975329 308.84131916106736Q287.48992677727483 316.02564391193204 288.60567418176527 325.60474357975164Q289.6942082349266 335.15662989624224 289.6942082349266 347.8924783182297L289.6942082349266 347.8924783182297Q289.6942082349266 351.8928409635975 288.2519006144878 354.83188290713304Q286.83680634537814 357.7437114993396 284.4420314284232 359.5942193897139Q282.0472565114683 361.4719406314171 279.02657451394566 362.3427678739462Q276.00589251642293 363.18638176514617 272.84914376225515 363.18638176514617L272.84914376225515 363.18638176514617Q269.6923950080873 363.18638176514617 266.67171301056464 362.3427678739462Q263.67824436437104 361.4719406314171 261.2834694474161 359.5942193897139Q258.8886945304612 357.7437114993396 257.4463869100225 354.83188290713304Q256.03129264091274 351.8928409635975 256.03129264091274 347.8924783182297L256.03129264091274 347.8924783182297L256.03129264091274 309.60329299828027L268.2773007389776 309.60329299828027L268.2773007389776 347.8924783182297Q268.2773007389776 351.3213605856878 269.6923950080873 352.6820281521395Q271.13470262852604 354.01548236726205 272.84914376225515 354.01548236726205L272.84914376225515 354.01548236726205Q274.5907982473133 354.01548236726205 276.00589251642293 352.6820281521395Q277.4482001368617 351.3213605856878 277.4482001368617 347.8924783182297L277.4482001368617 347.8924783182297Q277.4482001368617 335.53761681484866 276.25081267838425 326.2034373089904Q275.0534252199068 316.8964711544611 273.23013068086163 309.76657310625444Q271.4340494931454 302.6366750580478 269.25698138682276 297.2756448462283Q267.10712663182915 291.9146146344088 265.311045444113 287.4244116651184L265.311045444113 287.4244116651184Q263.48775090506774 283.015848749815 261.80052312266776 277.3826850247052Q260.1405086915968 271.72230794826635 258.83426782780316 264.5651965487307Q257.5552403153386 257.38087179786595 256.7932664781257 248.4276792106141Q256.03129264091274 239.5016999746913 256.03129264091274 228.48029268643293L256.03129264091274 228.48029268643293Q256.03129264091274 224.47993004106507 257.4463869100225 221.59531480018757Q258.8886945304612 218.7379129106391 261.2834694474161 216.86019166893584Q263.67824436437104 215.0096837785616 266.67171301056464 214.0844298333745Q269.6923950080873 213.18638923951636 272.84914376225515 213.18638923951636L272.84914376225515 213.18638923951636Q276.00589251642293 213.18638923951636 279.02657451394566 214.0844298333745Q282.0472565114683 215.0096837785616 284.4420314284232 216.86019166893584Q286.83680634537814 218.7379129106391 288.2519006144878 221.59531480018757Q289.6942082349266 224.47993004106507 289.6942082349266 228.48029268643293L289.6942082349266 228.48029268643293ZM297.3411599583848 214.71033691394223L334.07918425257935 214.71033691394223L334.07918425257935 223.88123631182634L321.8331761545145 223.88123631182634L321.8331761545145 361.66243409072035L309.5871680564497 361.66243409072035L309.5871680564497 223.88123631182634L297.3411599583848 223.88123631182634L297.3411599583848 214.71033691394223Z " fill="#ff8303" transform="matrix(1.2588433546169575,0,0,1.2588433546169575,0,-62.78154322491797)"/><path d="M515.9641682449051 214.51984428512458L552.7021925390997 214.51984428512458L552.7021925390997 223.6907436830087L540.4561844410348 223.6907436830087L540.4561844410348 361.4719414619027L528.21017634297 361.4719414619027L528.21017634297 223.6907436830087L515.9641682449051 223.6907436830087L515.9641682449051 214.51984428512458ZM597.1143819080814 228.28980005761525L597.1143819080814 347.701985689412Q597.1143819080814 351.7023483347798 595.6176475849846 354.6413902783154Q594.1481266132168 357.55321887052196 591.6444982909459 359.45815346355425Q589.1680833200039 361.36308805658655 586.011334565836 362.2883420017737Q582.8545858116681 363.1863825956318 579.5073435981972 363.1863825956318L579.5073435981972 363.1863825956318Q575.9696079254229 363.1863825956318 572.5135123066357 362.17948859645753Q569.0574166878484 361.17259459728336 566.3905082576032 359.21323330159294Q563.7235998273579 357.2538720059026 562.036372044958 354.34204341369605Q560.376357613887 351.4302148214895 560.376357613887 347.701985689412L560.376357613887 347.701985689412L560.376357613887 228.28980005761525Q560.376357613887 224.67042433085388 562.036372044958 221.84023579263445Q563.7235998273579 219.010047254415 566.4449349602613 217.10511266138272Q569.1662700931646 215.2001780683504 572.6223657119517 214.19328406917617Q576.0512479794099 213.18639007000195 579.5889836521842 213.18639007000195L579.5889836521842 213.18639007000195Q582.9362258656554 213.18639007000195 586.092974619823 214.08443066386005Q589.249723373991 215.00968460904716 591.6989249936039 216.8601924994214Q594.1481266132168 218.73791374112466 595.6176475849846 221.59531563067316Q597.1143819080814 224.47993087155064 597.1143819080814 228.28980005761525L597.1143819080814 228.28980005761525ZM584.8683738100167 347.701985689412L584.8683738100167 228.28980005761525Q584.8683738100167 225.05141124946033 583.2627860816037 223.66353033167965Q581.6844117045198 222.27564941389898 579.5889836521842 222.27564941389898L579.5889836521842 222.27564941389898Q578.3371694910487 222.27564941389898 577.1125686812422 222.71106303516348Q575.8607545201068 223.11926330509897 574.8538605209326 223.93566384496998Q573.8469665217583 224.75206438484096 573.2210594411905 225.8678117893313Q572.6223657119517 226.95634584249265 572.6223657119517 228.28980005761525L572.6223657119517 228.28980005761525L572.6223657119517 347.701985689412Q572.6223657119517 349.03543990453466 573.2210594411905 350.178400660354Q573.8469665217583 351.32136141617343 574.8538605209326 352.0833352533863Q575.8607545201068 352.87252244192825 577.0581419785842 353.28072271186375Q578.2555294370616 353.7161363331283 579.5073435981972 353.7161363331283L579.5073435981972 353.7161363331283Q581.6027716505328 353.7161363331283 583.2355727302747 352.3282554153476Q584.8683738100167 350.94037449756695 584.8683738100167 347.701985689412L584.8683738100167 347.701985689412ZM633.852406202276 349.334786769154L633.852406202276 226.5753589238862Q633.852406202276 224.75206438484096 632.1107517172179 224.28943741224742L632.1107517172179 224.28943741224742Q630.4779506374759 223.6907436830087 621.6063981042112 223.6907436830087L621.6063981042112 223.6907436830087L621.6063981042112 352.2738287126896Q630.4779506374759 352.2738287126896 632.1107517172179 351.7023483347798L632.1107517172179 351.7023483347798Q633.852406202276 351.13086795687013 633.852406202276 349.334786769154L633.852406202276 349.334786769154ZM646.0984143003409 226.87470578850554L646.0984143003409 348.545599580612Q646.0984143003409 353.444002819838 644.0301995993343 356.05648454742516Q641.9619848983278 358.6961796263413 637.96162225296 359.9479937874769L637.96162225296 359.9479937874769Q636.0294743085987 360.51947416538655 633.2537124730372 360.84603438133496Q630.4779506374759 361.17259459728336 625.606760749579 361.36308805658655L625.606760749579 361.36308805658655Q620.7355708616822 361.4719414619027 617.0073417296046 361.4719414619027L617.0073417296046 361.4719414619027L609.3603900061464 361.4719414619027L609.3603900061464 214.51984428512458Q613.279112597527 214.51984428512458 617.2522618915659 214.57427098778265Q621.1981978342757 214.6286976904407 625.3346272362887 214.71033774442782L625.3346272362887 214.71033774442782Q633.7435527969599 214.90083120373103 637.7711287936568 215.96215190556333L637.7711287936568 215.96215190556333Q641.8803448443407 217.10511266138272 643.9757728966763 219.63595433498278Q646.0984143003409 222.16679600858285 646.0984143003409 226.87470578850554L646.0984143003409 226.87470578850554ZM695.0824466926002 228.28980005761525L695.0824466926002 347.701985689412Q695.0824466926002 351.7023483347798 693.5857123695034 354.6413902783154Q692.1161913977356 357.55321887052196 689.6125630754645 359.45815346355425Q687.1361481045226 361.36308805658655 683.9793993503547 362.2883420017737Q680.8226505961869 363.1863825956318 677.4754083827158 363.1863825956318L677.4754083827158 363.1863825956318Q673.9376727099416 363.1863825956318 670.4815770911545 362.17948859645753Q667.0254814723672 361.17259459728336 664.358573042122 359.21323330159294Q661.6916646118768 357.2538720059026 660.0044368294767 354.34204341369605Q658.3444223984056 351.4302148214895 658.3444223984056 347.701985689412L658.3444223984056 347.701985689412L658.3444223984056 228.28980005761525Q658.3444223984056 224.67042433085388 660.0044368294767 221.84023579263445Q661.6916646118768 219.010047254415 664.4129997447801 217.10511266138272Q667.1343348776834 215.2001780683504 670.5904304964706 214.19328406917617Q674.0193127639287 213.18639007000195 677.557048436703 213.18639007000195L677.557048436703 213.18639007000195Q680.9042906501741 213.18639007000195 684.0610394043418 214.08443066386005Q687.2177881585097 215.00968460904716 689.6669897781227 216.8601924994214Q692.1161913977356 218.73791374112466 693.5857123695034 221.59531563067316Q695.0824466926002 224.47993087155064 695.0824466926002 228.28980005761525L695.0824466926002 228.28980005761525ZM682.8364385945354 347.701985689412L682.8364385945354 228.28980005761525Q682.8364385945354 225.05141124946033 681.2308508661224 223.66353033167965Q679.6524764890386 222.27564941389898 677.557048436703 222.27564941389898L677.557048436703 222.27564941389898Q676.3052342755675 222.27564941389898 675.080633465761 222.71106303516348Q673.8288193046255 223.11926330509897 672.8219253054513 223.93566384496998Q671.815031306277 224.75206438484096 671.1891242257093 225.8678117893313Q670.5904304964706 226.95634584249265 670.5904304964706 228.28980005761525L670.5904304964706 228.28980005761525L670.5904304964706 347.701985689412Q670.5904304964706 349.03543990453466 671.1891242257093 350.178400660354Q671.815031306277 351.32136141617343 672.8219253054513 352.0833352533863Q673.8288193046255 352.87252244192825 675.0262067631029 353.28072271186375Q676.2235942215804 353.7161363331283 677.4754083827158 353.7161363331283L677.4754083827158 353.7161363331283Q679.5708364350514 353.7161363331283 681.2036375147934 352.3282554153476Q682.8364385945354 350.94037449756695 682.8364385945354 347.701985689412L682.8364385945354 347.701985689412Z " fill=" #f0e3ca" transform="matrix(1.2588433546169575,0,0,1.2588433546169575,0,-62.78154322491797)"/></g></svg>